<svg version="1.2" xmlns="http://www.w3.org/2000/svg" viewBox="0 0 512 512" width="512" height="512">
	<title>Proyecto nuevo</title>
	<style>
		.s0 { fill: #e06996 } 
		.s1 { fill: #ffffff } 
	</style>
	<path id="Capa 2" class="s0" d="m0 48c0-26.5 21.5-48 48-48h416c26.5 0 48 21.5 48 48v416c0 26.5-21.5 48-48 48h-416c-26.5 0-48-21.5-48-48z"/>
	<path id="TG" class="s1" aria-label="TG"  d="m169.1 170.8v192.2h-25v-192.2h-67.4v-22h159.5v22zm191 102.3v-22.3h74.9v103.9q-16.9 5.7-34.8 8.4-17.7 2.8-39.6 2.8-33.4 0-56.4-13.3-22.9-13.3-34.8-37.9-11.8-24.8-11.8-58.8 0-33.2 13-58 13.2-24.7 38-38.4 24.9-13.7 59.7-13.7 17.9 0 33.9 3.3 16.1 3.3 29.8 9.3l-9.5 21.6q-11.8-5.1-26.2-8.7-14.2-3.7-29.4-3.7-26.3 0-45 10.8-18.6 10.9-28.6 30.6-9.8 19.8-9.8 46.9 0 26.8 8.6 46.7 8.7 19.8 27 30.8 18.3 11 47.2 11 14.5 0 24.9-1.6 10.4-1.8 18.9-4.1v-65.6z"/>
</svg>