<svg width="264" height="185" viewBox="0 0 264 185" fill="none" xmlns="http://www.w3.org/2000/svg">
<path stroke="#c95582" d="M47 20.7608C56.9999 107.425 107.529 241.357 132.47 152.939C157.411 64.5201 169.137 92.9405 171.882 118.203C178.352 141.36 193.529 180.727 202.47 152.939C213.646 118.203 219.059 -19.6721 242 8.74808M47 20.7608L32 17.2609M47 20.7608L62 24.5C71.9999 111.164 119.214 241.357 144.155 152.939C169.097 64.5201 179.725 90.8353 182.47 116.098C188.94 139.255 206.236 180.727 215.177 152.939C226.353 118.203 237.059 -22.6594 260 5.76084L190.705 17.2609C167.764 -11.1594 178.352 118.203 167.176 152.939C158.235 180.727 143.058 141.36 136.588 118.203C133.843 92.9405 122.117 64.5201 97.1762 152.939C72.2351 241.357 12.9999 97.925 3 11.2609L17.5 14.3345M32 17.2609C41.9999 103.925 95.7644 241.357 120.705 152.939C145.646 64.5201 157.372 92.9405 160.117 118.203C166.588 141.36 181.764 180.727 190.705 152.939C201.882 118.203 201.174 -17.1594 224.115 11.2609M32 17.2609L17.5 14.3345M17.5 14.3345C27.4999 100.999 83.9998 241.357 108.941 152.939C133.882 64.5201 145.607 92.9405 148.352 118.203C154.823 141.36 169.999 180.727 178.94 152.939C190.117 118.203 184.059 -14.0857 207 14.3345" stroke-width="4"/>
</svg>
