<?xml version="1.0" standalone="no"?>
<!DOCTYPE svg PUBLIC "-//W3C//DTD SVG 20010904//EN"
 "http://www.w3.org/TR/2001/REC-SVG-20010904/DTD/svg10.dtd">
<svg version="1.0" xmlns="http://www.w3.org/2000/svg"
 width="1056.000000pt" height="1056.000000pt" viewBox="0 0 1056.000000 1056.000000"
 preserveAspectRatio="xMidYMid meet">
<metadata>
Created by potrace 1.14, written by Peter Selinger 2001-2017
</metadata>
<g transform="translate(0.000000,1056.000000) scale(0.100000,-0.100000)"
fill="#000000" stroke="none">
<path d="M10090 8971 c-73 -24 -154 -86 -212 -163 -20 -28 -38 -54 -40 -59 -3
-9 -27 -16 -88 -26 -30 -4 -41 0 -67 23 -77 71 -113 91 -190 110 -59 14 -111
6 -176 -27 -47 -24 -131 -108 -167 -167 -20 -33 -33 -42 -65 -49 -64 -12 -71
-10 -117 32 -155 145 -294 158 -421 39 -38 -35 -107 -134 -107 -153 0 -15 -50
-37 -90 -39 -30 -2 -44 7 -97 56 -99 92 -207 119 -299 76 -54 -25 -123 -99
-162 -171 -32 -60 -33 -61 -83 -68 -50 -7 -50 -7 -97 39 -26 26 -75 61 -109
78 -55 27 -69 30 -121 26 -69 -7 -127 -39 -169 -95 -15 -21 -30 -40 -33 -43
-10 -9 -68 -144 -84 -195 -23 -74 -60 -232 -71 -305 -3 -20 -7 -47 -10 -60 -3
-13 -7 -42 -10 -65 -4 -22 -8 -51 -10 -65 -2 -14 -7 -50 -10 -80 -3 -30 -8
-68 -10 -85 -13 -98 -40 -408 -50 -580 -2 -33 -6 -103 -10 -155 -7 -117 -14
-259 -20 -410 -2 -63 -7 -173 -11 -245 -3 -71 -7 -170 -9 -220 -2 -73 -13
-379 -19 -509 -1 -24 -7 -31 -37 -41 -46 -16 -105 -54 -145 -93 l-31 -30 -43
34 c-64 51 -145 69 -221 49 -50 -13 -121 -52 -156 -85 -28 -25 -27 -25 -60 8
-43 43 -92 69 -153 80 -30 6 -58 9 -61 7 -3 -2 -21 -7 -39 -10 -42 -7 -125
-52 -154 -82 -11 -12 -23 -23 -26 -23 -3 0 -22 16 -44 34 -57 52 -120 78 -186
78 -48 0 -135 -24 -150 -41 -3 -3 -26 -21 -52 -39 l-47 -33 -37 36 c-65 63
-148 88 -242 71 -82 -14 -204 -110 -293 -231 -24 -33 -47 -61 -51 -63 -5 -2
-8 -7 -8 -12 0 -5 -22 -44 -48 -87 -50 -81 -159 -299 -207 -413 -45 -107 -48
-115 -50 -120 -1 -3 -7 -18 -14 -35 -25 -59 -143 -370 -146 -387 -2 -9 -8 -25
-13 -35 -6 -10 -11 -22 -12 -28 -3 -13 -1 -5 -55 -175 -26 -80 -51 -154 -55
-165 -5 -11 -14 -38 -20 -60 -6 -22 -14 -47 -17 -55 -3 -8 -7 -20 -9 -27 -1
-6 -13 -47 -27 -90 -14 -43 -38 -122 -53 -175 -15 -54 -30 -98 -33 -98 -3 0
-26 46 -50 103 -25 56 -54 125 -66 152 -35 79 -106 255 -125 310 -10 28 -24
64 -30 80 -7 17 -14 35 -16 40 -2 6 -15 42 -29 80 -58 156 -143 403 -150 432
-2 10 -22 72 -45 138 -22 66 -44 134 -49 150 -5 17 -26 83 -46 148 -20 65 -38
128 -41 140 -2 12 -8 33 -13 47 -5 14 -19 61 -31 105 -12 44 -24 87 -27 95 -7
17 -9 25 -16 60 -3 14 -15 55 -26 93 -11 37 -17 67 -14 67 3 0 1 6 -5 13 -6 7
-14 28 -17 47 -3 19 -15 69 -26 110 -11 41 -23 89 -26 105 -3 17 -9 38 -14 48
-5 9 -8 17 -5 17 3 0 0 15 -5 33 -6 17 -12 41 -14 52 -3 11 -16 66 -30 122
-14 56 -27 112 -29 125 -3 13 -5 25 -6 28 -1 3 -3 10 -4 15 -1 6 -5 21 -9 35
-4 14 -9 36 -11 50 -2 14 -14 68 -26 120 -12 52 -23 106 -26 120 -2 14 -9 45
-14 70 -6 25 -13 56 -15 70 -3 14 -12 59 -20 100 -21 105 -23 114 -40 210 -9
47 -20 105 -25 130 -5 25 -12 63 -16 85 -3 22 -8 49 -10 60 -6 35 -15 89 -19
115 -6 36 -13 81 -19 115 -3 17 -8 50 -11 75 -3 25 -8 52 -10 60 -3 9 -7 34
-10 55 -4 40 -10 80 -20 145 -3 19 -7 51 -10 70 -2 19 -7 58 -11 85 -6 53 -8
63 -18 165 -4 36 -9 72 -12 80 -3 11 -58 29 -181 60 -98 24 -182 45 -188 46
-5 1 -48 12 -95 24 -47 12 -94 23 -105 25 -11 2 -47 11 -80 19 -48 13 -365 88
-425 101 -8 2 -46 11 -85 20 -86 20 -102 24 -140 30 -16 3 -38 8 -48 11 -11 3
-29 7 -40 8 -12 2 -35 6 -52 10 -16 3 -40 9 -53 11 -12 3 -32 7 -45 10 -29 6
-265 54 -297 60 -14 2 -45 9 -70 15 -25 5 -56 12 -70 14 -14 3 -68 14 -120 26
-111 24 -185 40 -220 46 -14 2 -37 7 -52 10 -15 3 -30 5 -33 5 -2 0 -19 5 -37
10 -18 6 -46 12 -61 14 l-29 3 7 -62 c4 -33 9 -76 11 -95 2 -19 6 -50 9 -70
13 -91 15 -109 20 -151 2 -25 6 -56 9 -70 2 -14 10 -59 16 -100 6 -41 13 -84
15 -95 2 -11 6 -38 9 -60 3 -22 8 -51 11 -65 3 -14 8 -41 10 -60 3 -19 8 -44
10 -56 3 -12 7 -39 10 -60 4 -21 8 -46 10 -54 5 -15 44 -215 50 -255 2 -11 6
-31 9 -45 3 -14 15 -68 26 -120 11 -52 29 -133 40 -180 11 -47 22 -97 25 -111
2 -14 22 -99 45 -190 23 -90 43 -175 46 -189 3 -14 20 -81 38 -150 19 -69 37
-138 41 -155 5 -16 8 -33 7 -37 -1 -5 3 -8 9 -8 5 0 8 -4 5 -8 -5 -9 85 -334
131 -472 8 -25 16 -54 18 -65 1 -11 4 -21 5 -22 1 -2 3 -6 4 -10 1 -5 12 -39
25 -78 12 -38 24 -77 26 -85 2 -8 10 -34 19 -58 8 -23 16 -44 16 -47 0 -3 3
-10 5 -17 2 -7 29 -87 59 -178 59 -178 104 -308 161 -465 21 -55 45 -121 54
-148 10 -26 21 -50 24 -54 4 -3 7 -14 7 -23 0 -9 6 -30 14 -46 8 -16 40 -94
71 -174 31 -80 63 -160 71 -178 8 -17 20 -47 28 -65 71 -168 93 -220 137 -315
16 -35 29 -66 29 -69 0 -8 261 -532 303 -608 33 -60 130 -228 169 -295 38 -63
182 -285 195 -300 7 -8 48 -62 91 -120 167 -223 351 -402 517 -503 33 -21 66
-37 73 -37 6 0 12 -4 12 -8 0 -7 104 -45 162 -58 43 -10 180 -12 211 -3 18 5
46 12 62 15 17 3 34 9 38 13 5 5 39 -2 77 -15 72 -25 172 -43 218 -38 74 8
114 16 153 29 40 14 46 14 117 -11 106 -36 233 -40 330 -9 39 12 73 21 75 19
6 -6 117 -45 147 -52 35 -7 158 -8 200 0 19 3 53 13 76 21 38 14 44 14 85 -5
88 -40 223 -55 319 -35 63 13 136 49 205 101 44 33 167 156 156 156 -3 0 -1 4
4 8 40 29 164 243 240 415 17 40 95 245 100 262 1 6 4 17 7 25 33 90 84 257
94 309 6 33 22 29 42 -11 69 -133 158 -262 232 -337 106 -108 157 -135 255
-135 81 -1 138 23 193 81 l33 35 42 -34 c139 -110 272 -114 384 -12 26 24 48
44 49 44 1 0 17 -13 35 -30 88 -77 197 -105 288 -75 26 8 70 35 98 60 l51 45
49 -40 c128 -107 290 -101 391 14 41 47 46 48 78 21 49 -43 53 -46 112 -73
170 -78 329 9 434 238 58 125 158 477 194 680 2 14 9 45 14 70 11 47 14 60 30
150 13 73 18 95 31 159 6 30 12 64 14 75 1 12 5 35 8 51 4 17 9 46 12 65 3 19
8 42 10 50 4 17 15 81 20 125 2 17 13 77 24 135 10 58 22 123 25 145 4 22 14
81 22 130 9 50 18 106 20 125 3 19 6 44 8 55 22 121 32 176 41 245 3 25 8 52
10 60 2 8 7 33 10 55 3 23 8 52 10 65 3 14 8 41 10 60 2 19 7 46 10 60 5 23 9
46 20 122 2 15 9 53 14 85 6 32 12 72 15 88 11 77 19 122 23 140 2 11 6 36 8
55 3 19 8 46 11 60 3 14 8 39 10 55 2 17 6 41 9 55 2 14 7 39 10 55 3 17 7 39
9 50 6 33 18 104 20 128 2 12 6 31 9 42 3 11 8 42 12 69 3 27 8 52 10 55 1 3
6 24 9 46 3 22 8 51 11 65 3 14 7 39 10 55 2 17 7 42 10 58 27 140 42 218 50
262 2 11 6 31 9 45 3 14 8 37 11 53 9 50 16 81 41 202 14 66 28 131 30 145 3
14 10 45 15 70 6 25 12 52 14 60 10 45 79 330 87 360 11 41 29 111 32 125 10
40 83 280 93 305 3 8 8 24 10 34 2 10 12 39 23 64 11 24 20 49 20 54 0 20 120
288 130 288 3 0 46 7 95 16 50 8 101 17 115 19 24 3 67 10 120 20 14 3 39 7
55 9 33 5 149 25 180 31 11 2 26 4 33 4 16 1 15 16 -1 33 -6 7 -32 38 -57 68
-25 30 -60 68 -79 85 -19 16 -39 35 -45 40 -46 44 -194 77 -256 56z m115 -161
c14 -6 15 -9 5 -10 -8 -1 -24 -3 -35 -6 -11 -2 -40 -6 -65 -9 l-45 -5 40 20
c43 21 68 24 100 10z m-715 -120 c8 -5 11 -10 5 -11 -23 -2 -53 -6 -92 -13
-50 -9 -55 -3 -15 18 31 17 80 20 102 6z m-682 -110 c14 0 -11 -14 -31 -17
-12 -2 -46 -8 -75 -14 -30 -6 -56 -8 -59 -6 -7 8 45 51 70 58 12 3 37 0 56 -8
18 -7 36 -13 39 -13z m893 -95 c-17 -36 -31 -68 -31 -70 0 -2 -5 -16 -12 -32
-6 -15 -12 -30 -13 -33 0 -3 -23 -70 -49 -150 -50 -150 -113 -364 -122 -414
-2 -16 -9 -37 -15 -47 -5 -11 -8 -19 -5 -19 2 0 -4 -29 -14 -65 -10 -36 -17
-65 -15 -65 2 0 -2 -18 -10 -40 -8 -22 -14 -43 -14 -45 0 -3 -2 -18 -5 -33 -4
-15 -9 -37 -11 -49 -11 -51 -14 -65 -19 -81 -3 -9 -7 -28 -10 -42 -3 -14 -10
-50 -16 -80 -6 -30 -13 -66 -16 -80 -3 -14 -9 -41 -14 -60 -5 -19 -12 -51 -15
-70 -3 -19 -14 -78 -25 -130 -10 -52 -22 -108 -25 -125 -7 -42 -11 -62 -40
-215 -14 -74 -28 -151 -31 -170 -5 -33 -7 -46 -18 -102 -5 -22 -22 -123 -30
-170 -14 -86 -19 -115 -22 -133 -3 -11 -7 -35 -10 -54 -3 -18 -8 -43 -10 -55
-3 -11 -7 -37 -9 -56 -3 -19 -7 -46 -10 -60 -3 -14 -7 -41 -10 -60 -3 -19 -7
-46 -10 -60 -2 -14 -7 -38 -9 -55 -16 -101 -26 -163 -30 -181 -2 -12 -7 -39
-11 -60 -11 -73 -16 -99 -26 -154 -6 -30 -11 -62 -11 -70 0 -8 -4 -33 -8 -55
-5 -22 -11 -60 -14 -85 -3 -25 -8 -55 -10 -66 -2 -12 -7 -39 -10 -60 -4 -22
-13 -77 -21 -124 -7 -47 -16 -101 -19 -120 -3 -19 -7 -44 -9 -55 -5 -25 -15
-80 -21 -120 -10 -59 -37 -220 -42 -245 -3 -14 -7 -38 -9 -55 -7 -43 -14 -86
-20 -115 -4 -23 -16 -89 -30 -165 -2 -16 -7 -41 -10 -55 -3 -14 -7 -38 -10
-55 -6 -32 -12 -64 -21 -105 -3 -14 -7 -36 -10 -50 -13 -76 -20 -108 -23 -112
-2 -2 -4 -14 -6 -28 -3 -14 -6 -32 -8 -40 -2 -8 -7 -33 -11 -55 -5 -22 -14
-62 -22 -89 -8 -27 -12 -52 -9 -54 3 -3 1 -10 -4 -16 -5 -6 -11 -27 -14 -47
-2 -19 -9 -51 -15 -70 -6 -18 -26 -81 -43 -138 -69 -228 -146 -342 -233 -346
-35 -2 -93 30 -148 83 l-37 35 16 36 c18 42 101 322 109 366 3 17 10 48 16 70
6 22 12 49 14 60 1 11 12 67 24 125 11 58 23 117 25 132 2 15 8 51 14 80 17
86 22 111 26 148 3 19 8 46 11 60 3 14 8 41 10 60 5 40 12 86 18 115 2 11 7
45 11 75 4 30 9 64 11 75 3 11 7 38 9 60 5 41 9 68 19 120 3 17 8 55 11 85 3
30 8 66 10 80 6 33 12 72 20 140 4 30 9 64 11 74 2 11 6 42 9 69 3 28 8 53 9
56 2 3 7 35 10 71 4 36 8 76 11 90 7 43 15 99 20 143 3 23 8 58 10 77 3 19 8
53 11 75 2 22 7 56 10 75 3 19 7 51 9 70 2 19 7 53 10 75 3 22 8 58 11 80 3
22 7 54 10 70 2 17 7 50 10 75 3 25 11 88 19 140 8 52 17 118 20 145 4 28 8
57 10 65 2 8 7 39 10 69 4 30 9 63 11 75 2 12 6 39 9 61 2 23 9 72 15 110 6
39 13 84 15 100 4 27 13 83 20 125 2 14 11 69 21 133 2 15 7 42 10 60 3 17 7
43 9 57 3 27 14 89 21 124 4 22 8 41 24 136 16 94 20 114 24 135 4 21 32 172
40 215 2 14 5 25 6 25 2 0 6 17 13 60 11 61 38 179 68 298 17 67 32 127 33
132 40 163 139 447 181 516 6 10 30 19 60 23 65 9 87 12 225 37 63 11 135 22
159 25 25 2 47 7 50 9 16 16 8 -12 -18 -70z m-1591 -27 c0 -4 -3 -9 -7 -9 -5
-1 -17 -3 -28 -4 -11 -2 -40 -7 -64 -10 -49 -8 -49 4 1 35 24 14 36 16 64 7
19 -6 34 -14 34 -19z m915 -40 c-3 -13 -12 -39 -20 -58 -21 -57 -49 -134 -51
-145 -1 -5 -19 -66 -39 -135 -20 -69 -38 -134 -41 -145 -8 -40 -13 -61 -29
-125 -9 -36 -18 -72 -20 -80 -2 -8 -8 -35 -14 -60 -7 -25 -14 -58 -16 -74 -2
-16 -13 -72 -24 -125 -11 -53 -22 -109 -26 -126 -15 -84 -87 -483 -90 -500 -6
-41 -17 -113 -35 -230 -11 -66 -22 -138 -25 -160 -4 -22 -8 -51 -10 -64 -2
-13 -7 -45 -11 -70 -4 -25 -8 -55 -11 -66 -2 -11 -6 -38 -8 -60 -8 -65 -13
-103 -35 -260 -12 -82 -24 -166 -26 -185 -2 -19 -7 -46 -10 -60 -2 -14 -7 -45
-9 -70 -2 -25 -7 -61 -9 -80 -3 -19 -8 -57 -12 -85 -3 -27 -8 -59 -10 -70 -3
-11 -7 -40 -9 -65 -3 -25 -7 -54 -9 -65 -2 -11 -8 -49 -12 -85 -8 -65 -10 -78
-13 -82 -1 -2 -4 -25 -6 -53 -2 -27 -6 -63 -9 -80 -3 -16 -8 -48 -10 -70 -3
-22 -8 -57 -11 -77 -3 -21 -7 -53 -9 -70 -16 -115 -57 -407 -60 -428 -3 -14
-7 -47 -11 -75 -3 -27 -8 -57 -10 -65 -2 -8 -6 -37 -10 -65 -3 -27 -10 -77
-16 -110 -6 -33 -13 -73 -15 -90 -2 -16 -6 -41 -9 -55 -3 -14 -7 -41 -10 -60
-2 -19 -6 -44 -8 -55 -3 -11 -8 -42 -12 -70 -10 -62 -12 -73 -19 -107 -9 -40
-15 -78 -22 -118 -3 -19 -7 -41 -10 -49 -2 -8 -7 -30 -10 -50 -5 -32 -34 -164
-51 -231 -3 -14 -8 -33 -10 -44 -7 -37 -52 -186 -61 -202 -8 -14 -22 4 -74 92
-96 161 -141 259 -134 292 16 77 43 232 50 287 3 17 7 48 11 70 3 22 10 69 15
105 5 36 12 83 15 105 12 79 16 112 30 230 3 28 8 66 10 85 2 19 7 58 10 85 4
28 8 61 10 75 2 14 6 54 10 90 4 36 8 76 10 90 3 14 7 57 11 95 3 39 8 84 9
100 2 17 6 57 9 90 3 33 8 78 10 100 3 22 8 72 11 110 4 39 8 81 11 95 2 14 6
58 10 98 3 40 7 81 9 92 2 10 7 54 10 97 8 94 12 131 20 203 4 30 8 76 10 102
2 26 6 75 10 110 4 35 9 74 10 88 6 60 16 158 20 190 2 19 7 64 10 100 4 36 8
81 10 100 2 19 7 60 10 90 6 62 11 102 20 176 4 28 8 68 10 90 2 21 6 55 9 74
3 19 8 56 11 83 8 75 15 129 20 167 3 19 7 49 9 66 2 17 6 49 10 70 3 21 8 59
11 84 3 25 8 56 10 70 6 32 12 74 20 130 13 92 21 140 69 400 10 53 37 178 52
239 9 36 18 72 20 80 10 44 34 124 58 191 14 41 28 82 30 90 3 15 35 24 116
35 25 4 52 8 60 10 8 2 31 7 50 10 19 3 46 8 60 10 14 2 45 7 70 10 25 3 61
10 80 14 62 16 72 14 65 -11z m-8742 -5 c18 -2 46 -8 62 -13 17 -5 57 -14 90
-21 33 -6 65 -12 70 -14 38 -8 83 -17 97 -19 27 -3 24 8 44 -151 2 -16 6 -52
10 -80 3 -27 12 -85 20 -128 7 -44 13 -82 12 -85 -1 -4 3 -36 10 -72 6 -36 14
-83 18 -105 4 -22 8 -47 10 -55 12 -65 16 -85 20 -118 2 -20 6 -44 9 -52 2 -8
7 -31 10 -50 3 -19 13 -69 21 -110 9 -41 18 -86 20 -100 2 -14 9 -45 14 -70 5
-25 12 -56 14 -70 3 -14 9 -45 14 -70 45 -207 55 -252 67 -301 8 -30 16 -64
18 -75 4 -21 10 -44 38 -160 11 -45 22 -90 24 -100 2 -11 4 -19 5 -19 1 0 3
-9 5 -21 3 -11 11 -47 20 -80 39 -144 78 -291 85 -319 22 -86 73 -262 100
-350 17 -55 32 -107 33 -115 5 -28 162 -516 229 -710 83 -240 222 -619 263
-715 7 -16 27 -66 45 -110 37 -93 142 -338 175 -410 12 -27 42 -93 66 -145 48
-105 226 -459 267 -530 117 -206 282 -472 324 -525 4 -5 45 -59 90 -120 81
-108 336 -375 357 -375 6 0 11 -5 11 -11 0 -11 -38 -9 -110 6 -55 12 -153 59
-233 112 -74 49 -290 256 -343 328 -16 22 -31 42 -35 45 -3 3 -29 37 -58 75
-29 39 -58 77 -64 85 -25 31 -195 297 -227 355 -19 33 -36 62 -40 65 -3 3 -15
23 -27 45 -11 22 -39 74 -62 115 -61 111 -232 451 -281 560 -41 91 -132 299
-193 440 -29 67 -159 396 -204 515 -103 275 -275 775 -266 775 3 0 0 6 -6 13
-6 8 -13 24 -15 38 -3 13 -5 24 -6 24 -1 0 -3 7 -5 15 -3 8 -32 103 -65 210
-50 158 -180 607 -194 670 -2 8 -36 143 -76 300 -40 157 -73 294 -75 305 -2
11 -11 52 -20 90 -21 87 -19 80 -45 200 -11 55 -22 109 -25 120 -3 10 -7 37
-11 59 -3 22 -8 44 -11 49 -2 4 -6 22 -9 40 -2 17 -10 66 -19 107 -8 41 -17
91 -20 110 -3 19 -8 46 -10 60 -3 14 -7 36 -10 50 -3 14 -7 36 -10 50 -3 14
-7 41 -9 60 -3 19 -7 50 -10 68 -16 89 -45 290 -53 357 -3 28 -7 53 -9 57 -5
8 18 17 29 11 5 -3 23 -7 40 -10z m7163 -62 c31 -19 90 -75 130 -123 20 -23
26 -25 65 -17 24 4 46 8 49 9 3 0 -9 -59 -27 -132 -18 -72 -36 -145 -39 -162
-3 -17 -7 -44 -11 -61 -3 -16 -7 -39 -8 -50 -2 -11 -6 -35 -9 -52 -10 -58 -15
-87 -20 -128 -3 -22 -8 -49 -10 -61 -4 -21 -16 -107 -21 -154 -5 -46 -16 -145
-21 -185 -3 -22 -7 -56 -9 -75 -3 -31 -6 -68 -20 -202 -2 -20 -6 -67 -9 -105
-4 -37 -8 -92 -11 -120 -14 -143 -24 -273 -30 -373 -3 -41 -7 -102 -10 -135
-8 -95 -18 -236 -30 -430 -3 -49 -8 -115 -10 -145 -2 -30 -7 -93 -10 -140 -3
-47 -8 -114 -10 -150 -3 -36 -7 -103 -10 -150 -6 -97 -12 -179 -21 -300 -3
-47 -7 -109 -9 -138 -4 -68 -11 -75 -20 -20 -12 70 -72 273 -104 347 -46 109
-94 177 -169 243 -25 22 -30 33 -27 59 2 17 7 122 11 232 3 111 8 231 9 267 2
36 6 139 9 230 7 178 11 286 20 450 4 58 8 146 11 195 4 86 8 133 20 300 11
153 15 202 20 245 3 25 8 77 11 115 4 39 8 81 9 95 1 14 3 25 4 25 1 0 4 18 6
40 12 108 15 132 18 150 10 46 20 101 22 120 10 70 17 110 25 131 5 13 7 24 5
24 -2 0 0 11 5 25 5 14 12 36 14 48 15 78 74 208 114 250 30 32 55 34 98 8z
m881 -95 c-18 -47 -55 -180 -60 -213 -2 -12 -6 -26 -10 -29 -4 -4 -7 -17 -7
-29 0 -11 -7 -46 -15 -78 -8 -31 -17 -71 -20 -89 -3 -18 -8 -40 -10 -48 -2 -8
-6 -33 -10 -55 -3 -22 -7 -47 -10 -55 -2 -8 -6 -31 -9 -50 -3 -19 -8 -45 -10
-56 -2 -12 -7 -39 -10 -60 -10 -64 -18 -118 -22 -139 -2 -11 -11 -70 -19 -132
-9 -62 -18 -120 -19 -130 -2 -10 -7 -45 -10 -78 -4 -33 -9 -71 -11 -85 -16
-111 -26 -193 -40 -320 -6 -64 -16 -145 -20 -170 -2 -14 -7 -56 -11 -95 -3
-38 -8 -83 -10 -100 -1 -16 -5 -58 -8 -92 -3 -35 -8 -75 -10 -90 -3 -16 -7
-59 -11 -98 -3 -38 -7 -86 -10 -105 -2 -19 -6 -62 -10 -95 -3 -33 -8 -81 -11
-106 -3 -25 -7 -63 -9 -85 -9 -108 -16 -182 -20 -214 -3 -19 -7 -62 -10 -95
-11 -115 -15 -160 -20 -200 -5 -42 -12 -114 -21 -205 -11 -112 -13 -125 -14
-125 0 0 -3 -26 -5 -58 -2 -32 -6 -75 -9 -95 -3 -20 -8 -64 -12 -97 -3 -33 -7
-71 -9 -85 -1 -14 -6 -56 -10 -95 -4 -38 -9 -79 -11 -90 -2 -11 -6 -48 -10
-83 -3 -35 -7 -73 -10 -85 -2 -12 -6 -44 -9 -72 -4 -27 -8 -61 -10 -75 -2 -14
-7 -49 -10 -79 -4 -30 -9 -63 -11 -75 -5 -23 -7 -34 -25 -168 -7 -49 -15 -88
-18 -88 -6 0 -67 150 -114 280 -66 183 -99 278 -103 299 -3 13 -9 31 -13 40
-4 9 -7 27 -6 41 11 144 17 210 20 235 3 17 7 66 10 110 3 44 8 109 11 145 5
66 10 137 19 265 2 39 7 104 10 145 3 41 8 109 10 150 2 41 7 108 10 150 4 41
8 109 11 150 2 41 7 107 9 145 3 39 8 104 10 145 3 41 7 102 9 135 8 96 18
235 21 295 2 30 4 55 5 55 0 0 3 29 5 65 6 101 15 217 20 263 2 23 7 78 10
122 3 44 8 91 10 105 2 14 6 61 10 105 3 44 8 91 10 105 2 14 7 57 10 95 13
127 14 140 20 185 4 25 8 65 11 90 3 25 6 56 9 70 2 14 6 45 10 70 3 25 8 56
10 70 3 14 7 41 10 60 3 19 8 49 11 65 3 17 7 46 10 65 2 19 9 50 14 70 5 19
12 49 15 67 7 44 33 145 57 226 13 45 27 71 42 79 11 6 23 10 26 9 5 -2 67 6
113 15 12 2 37 6 57 9 20 3 47 7 60 10 13 3 40 7 60 10 20 3 56 9 81 13 53 9
58 0 36 -62z m-7332 9 c103 -18 201 -40 207 -45 4 -3 10 -26 12 -50 8 -70 17
-142 21 -170 2 -14 7 -43 10 -65 3 -22 8 -51 10 -65 2 -14 7 -45 10 -70 7 -54
10 -70 29 -185 23 -142 25 -149 30 -175 3 -14 12 -65 21 -115 9 -49 18 -99 21
-110 2 -11 5 -31 7 -45 3 -14 8 -43 13 -65 11 -53 11 -55 13 -57 1 -2 4 -17 6
-33 3 -17 12 -64 21 -105 9 -41 17 -84 19 -95 1 -11 8 -38 13 -60 6 -22 13
-53 16 -70 3 -16 24 -109 46 -205 23 -96 43 -182 45 -190 2 -8 11 -44 20 -80
9 -36 19 -73 20 -83 2 -10 13 -51 24 -91 11 -41 23 -88 26 -107 3 -18 8 -36
11 -41 3 -4 7 -17 10 -28 5 -26 10 -44 29 -110 8 -30 17 -67 20 -81 3 -14 12
-42 20 -62 8 -20 15 -39 15 -42 -1 -12 44 -179 57 -215 3 -8 7 -20 8 -26 12
-54 260 -826 274 -849 3 -5 6 -17 8 -25 1 -8 6 -23 12 -35 5 -11 20 -49 32
-85 12 -36 26 -71 31 -77 6 -7 8 -13 4 -13 -4 0 0 -14 9 -30 9 -17 13 -30 10
-30 -4 0 0 -12 8 -27 8 -16 24 -53 35 -83 98 -260 211 -531 308 -738 24 -51
44 -95 44 -98 0 -25 301 -593 336 -634 7 -8 12 -17 11 -20 0 -3 8 -18 18 -35
132 -209 255 -382 356 -496 l58 -66 -36 -32 c-61 -54 -70 -56 -114 -26 -107
70 -254 211 -349 335 -19 25 -38 47 -41 50 -7 6 -73 97 -130 180 -57 82 -169
259 -169 267 0 4 -6 14 -14 22 -7 9 -24 36 -37 61 -13 25 -26 47 -29 50 -6 6
-32 57 -154 295 -83 164 -129 259 -199 415 -14 30 -36 81 -51 113 -14 32 -26
59 -26 61 0 2 -10 25 -22 52 -12 27 -23 51 -23 54 -1 3 -9 23 -19 45 -125 284
-374 978 -516 1440 -34 110 -70 228 -81 262 -10 34 -21 70 -22 80 -2 10 -6 25
-9 33 -3 8 -11 33 -17 55 -6 22 -20 74 -32 115 -12 41 -23 82 -25 90 -1 8 -21
85 -44 170 -23 85 -43 163 -45 173 -3 10 -7 27 -10 37 -3 10 -7 27 -9 37 -2
10 -12 47 -21 83 -9 36 -19 73 -21 83 -5 22 -9 38 -28 118 -15 67 -18 77 -35
154 -8 36 -40 184 -45 210 -1 6 -5 24 -9 40 -4 17 -9 41 -11 55 -3 14 -10 50
-16 80 -7 30 -14 68 -16 85 -2 16 -7 37 -10 47 -6 21 -13 54 -20 98 -4 29 -11
66 -19 100 -3 11 -19 116 -20 130 -1 8 -4 26 -8 40 -3 14 -11 59 -17 100 -17
109 -19 122 -24 150 -3 14 -8 48 -11 75 -4 28 -8 66 -11 85 -4 37 -14 105 -19
130 -4 27 3 27 87 9 46 -11 97 -21 113 -24z m466 -100 c9 -2 65 -15 125 -30
109 -27 121 -29 182 -41 39 -8 39 -8 47 -70 13 -116 19 -161 30 -229 3 -22 7
-53 10 -70 2 -16 6 -48 9 -70 6 -36 9 -56 21 -130 2 -11 6 -36 9 -55 3 -19 8
-47 11 -62 3 -16 7 -40 9 -55 5 -39 47 -273 61 -343 2 -14 7 -38 10 -55 7 -45
14 -75 19 -93 3 -9 8 -33 10 -52 3 -19 11 -64 20 -100 8 -36 17 -78 20 -95 3
-16 11 -52 17 -80 6 -27 12 -59 14 -70 2 -11 4 -22 5 -25 1 -3 3 -9 5 -15 1
-5 3 -12 4 -15 2 -3 4 -16 6 -30 1 -14 17 -83 34 -154 17 -70 33 -138 35 -150
9 -39 14 -60 71 -281 31 -121 58 -224 59 -230 22 -88 167 -599 176 -620 5 -11
21 -60 35 -110 31 -107 133 -422 145 -450 5 -11 32 -87 60 -170 29 -82 62
-177 75 -210 75 -200 105 -278 167 -430 38 -93 75 -183 82 -200 104 -231 159
-350 172 -370 7 -11 13 -23 13 -28 1 -18 171 -341 183 -345 4 -2 8 -10 8 -18
0 -8 8 -27 19 -42 58 -86 154 -249 153 -263 -1 -20 -100 -189 -111 -189 -10 0
-51 46 -121 135 -30 39 -58 72 -62 73 -5 2 -8 10 -8 18 0 8 -4 14 -10 14 -5 0
-10 6 -10 14 0 8 -4 16 -8 18 -7 2 -93 128 -139 203 -49 81 -134 229 -188 331
-14 26 -30 53 -36 60 -6 8 -8 14 -3 14 5 0 4 4 -1 8 -10 7 -22 30 -148 292
-60 125 -85 179 -92 200 -2 6 -32 73 -56 126 -37 84 -173 426 -251 634 -70
187 -263 751 -273 798 -2 9 -13 46 -25 82 -12 36 -23 70 -24 75 -1 6 -15 50
-30 100 -15 49 -30 96 -31 105 -2 8 -18 62 -35 120 -16 58 -32 115 -34 127 -3
13 -7 27 -11 33 -3 5 -8 18 -10 29 -2 10 -24 94 -49 187 -43 162 -113 437
-122 479 -6 27 -12 56 -18 80 -2 11 -14 63 -26 115 -12 52 -24 103 -26 113 -6
27 -23 104 -28 132 -2 11 -14 67 -26 125 -12 58 -24 116 -26 130 -2 14 -7 36
-10 50 -4 14 -8 34 -9 46 -2 11 -8 45 -14 75 -17 82 -32 161 -45 244 -19 111
-36 214 -41 236 -2 14 -7 45 -9 70 -3 24 -5 44 -6 44 -1 0 -3 14 -5 30 -2 17
-6 44 -9 60 -3 17 -8 55 -12 85 -3 30 -9 74 -14 97 -10 59 -11 58 81 38z m649
-155 c65 -17 127 -33 137 -34 51 -11 149 -38 156 -45 4 -4 9 -29 12 -56 2 -26
6 -64 9 -84 10 -66 16 -112 21 -159 3 -26 8 -54 10 -62 2 -8 7 -39 10 -69 4
-30 9 -63 11 -75 2 -12 6 -32 8 -46 3 -14 8 -43 11 -65 5 -39 10 -70 20 -130
3 -16 12 -70 20 -120 8 -49 17 -101 20 -115 5 -25 10 -49 19 -105 3 -16 10
-55 16 -85 7 -30 14 -68 17 -85 2 -16 11 -61 20 -100 8 -38 16 -81 18 -95 1
-14 7 -43 13 -65 6 -22 13 -53 16 -70 2 -16 14 -73 26 -125 12 -52 24 -106 26
-120 3 -14 8 -34 11 -45 3 -11 7 -29 9 -40 1 -11 12 -60 24 -110 12 -49 24
-98 26 -107 9 -42 14 -59 44 -178 18 -69 33 -132 35 -140 2 -8 11 -42 20 -75
9 -33 18 -67 20 -75 2 -8 10 -42 19 -75 19 -70 24 -88 30 -112 5 -19 108 -377
125 -431 5 -18 10 -34 11 -37 0 -3 2 -10 5 -17 2 -7 27 -87 55 -178 134 -426
286 -848 421 -1168 27 -64 49 -122 49 -128 0 -7 3 -14 8 -16 4 -1 22 -39 41
-83 19 -44 52 -116 73 -159 21 -44 38 -87 38 -97 0 -18 -51 -178 -92 -286
l-20 -55 -64 106 c-35 59 -86 150 -114 204 -28 53 -56 104 -61 112 -76 122
-473 1053 -505 1186 -4 16 -10 34 -15 39 -9 12 -240 699 -263 785 -9 30 -43
147 -76 260 -34 113 -63 212 -65 220 -2 8 -24 92 -50 185 -25 94 -48 181 -51
195 -3 14 -9 39 -15 56 -5 17 -11 40 -13 50 -2 10 -14 57 -25 104 -23 90 -29
113 -35 145 -3 11 -19 79 -36 150 -17 72 -33 141 -35 155 -7 37 -10 51 -45
215 -18 83 -34 160 -35 172 -2 11 -6 29 -9 40 -3 10 -8 34 -11 53 -3 19 -10
54 -16 78 -5 23 -11 57 -14 75 -2 17 -11 68 -20 112 -15 79 -24 137 -30 185
-2 14 -4 27 -5 30 -3 6 -4 14 -14 75 -4 28 -10 61 -13 75 -2 14 -6 42 -8 62
-2 21 -6 45 -9 55 -3 10 -8 42 -11 72 -4 30 -9 63 -11 75 -10 52 -27 204 -25
219 1 10 0 10 131 -23z m4734 -2887 c-2 -49 -4 -116 -5 -150 0 -35 -4 -63 -7
-63 -4 0 -16 24 -26 53 -10 28 -29 75 -42 104 l-23 52 32 34 c25 26 60 54 73
57 1 0 0 -39 -2 -87z m-1779 52 c29 -13 75 -56 75 -72 0 -7 -15 -34 -34 -60
-99 -140 -241 -428 -363 -738 -32 -82 -140 -376 -147 -400 -2 -5 -6 -17 -9
-25 -15 -40 -136 -414 -147 -455 -4 -16 -26 -88 -48 -160 -22 -71 -54 -177
-70 -235 -17 -58 -37 -125 -45 -150 -7 -25 -14 -48 -15 -53 -2 -16 -64 -214
-77 -242 -7 -16 -17 -41 -22 -55 -9 -23 -12 -21 -50 45 -22 39 -63 114 -92
167 -46 85 -51 102 -45 135 4 21 10 45 15 54 4 9 10 27 13 41 4 27 112 391
123 418 3 8 8 23 9 32 5 22 124 381 170 513 255 721 500 1165 680 1237 40 16
46 16 79 3z m521 -36 l33 -32 -21 -31 c-12 -17 -25 -33 -28 -36 -3 -3 -11 -15
-17 -27 -7 -12 -35 -61 -62 -109 l-50 -86 -17 58 c-9 33 -31 93 -49 136 l-32
76 33 31 c18 17 52 39 76 50 53 22 88 14 134 -30z m471 -4 l32 -32 -30 -42
c-17 -22 -57 -86 -88 -141 l-58 -99 -23 72 c-13 40 -36 100 -51 135 l-28 62
51 40 c27 22 62 43 76 46 15 3 32 7 37 9 16 4 47 -15 82 -50z m414 41 c19 -8
43 -24 53 -35 18 -20 18 -21 -6 -53 -14 -18 -51 -82 -84 -142 -37 -69 -60
-102 -62 -90 -2 10 -7 28 -11 39 -37 91 -71 183 -71 191 0 17 46 55 97 80 26
13 49 24 49 24 1 0 17 -6 35 -14z m585 -123 c13 -29 27 -66 30 -83 4 -16 11
-30 17 -30 6 0 8 -3 4 -6 -3 -3 1 -23 8 -45 8 -21 12 -39 10 -39 -3 0 0 -12 6
-27 6 -16 12 -35 14 -43 26 -125 36 -180 48 -260 8 -52 15 -102 15 -110 0 -41
20 -130 52 -230 21 -66 21 -91 -6 -320 -3 -25 -7 -63 -9 -84 -3 -22 -10 -76
-16 -120 -6 -45 -12 -93 -13 -108 -3 -44 -13 -42 -29 4 -57 160 -138 394 -137
398 0 5 -36 122 -47 150 -3 8 -8 24 -10 34 -2 11 -10 40 -19 64 -9 29 -13 64
-10 101 3 31 8 112 11 181 3 69 8 157 10 195 7 110 18 355 19 413 0 47 2 51
14 35 8 -10 25 -42 38 -70z m-387 -185 c28 -88 49 -160 57 -201 2 -10 5 -26 8
-35 3 -9 8 -34 12 -56 3 -21 8 -48 10 -60 4 -21 19 -116 33 -213 10 -68 4
-219 -14 -383 -2 -19 -6 -71 -10 -115 -3 -44 -8 -91 -10 -105 -2 -14 -7 -56
-10 -95 -4 -38 -11 -74 -16 -80 -7 -7 -10 -7 -8 0 1 6 -1 19 -5 30 -4 11 -11
29 -15 40 -9 21 -16 42 -62 175 -41 116 -148 464 -153 498 -3 15 -7 45 -10 67
-7 49 -17 114 -22 139 -21 113 -20 115 61 280 67 135 108 206 120 206 2 0 17
-42 34 -92z m-892 -168 c8 -36 17 -77 19 -91 4 -21 -34 -125 -96 -264 -5 -11
-28 -69 -50 -130 -23 -60 -45 -113 -49 -118 -10 -10 -58 163 -67 238 -7 65 -9
78 -25 172 l-10 62 54 108 c57 115 98 190 131 237 l20 29 28 -89 c16 -49 36
-118 45 -154z m424 165 c5 -9 17 -49 24 -80 2 -6 12 -49 24 -96 19 -76 20 -88
7 -115 -22 -47 -43 -95 -69 -164 -14 -36 -44 -114 -68 -175 -23 -60 -42 -115
-42 -122 0 -7 -4 -13 -9 -13 -4 0 -8 1 -8 3 0 1 -9 34 -21 72 -26 90 -26 88
-34 165 -4 36 -8 67 -10 70 -2 3 -6 28 -9 55 -4 28 -9 62 -12 76 -4 19 8 53
39 115 52 106 97 189 134 247 l27 42 10 -35 c6 -19 14 -39 17 -45z m-940 -7
c13 -40 24 -75 24 -78 1 -3 4 -14 8 -25 3 -11 8 -31 11 -45 2 -14 10 -47 16
-73 11 -44 11 -53 -8 -95 -12 -26 -39 -90 -60 -142 -50 -122 -55 -133 -58
-145 -1 -5 -8 -23 -15 -40 -6 -16 -13 -34 -15 -40 -4 -12 -52 -145 -61 -165
-3 -8 -7 -20 -8 -26 -2 -7 -17 -50 -34 -96 -17 -47 -31 -90 -31 -97 0 -6 -7
-25 -15 -40 -8 -16 -16 -39 -19 -52 -3 -13 -22 -78 -44 -144 -34 -103 -58
-180 -68 -220 -1 -5 -12 -39 -24 -75 -12 -36 -23 -72 -25 -80 -25 -118 -192
-646 -230 -727 -8 -17 -15 -33 -15 -36 0 -11 -75 -165 -114 -235 -35 -63 -66
-92 -66 -62 0 6 -9 21 -21 33 -11 12 -45 58 -75 102 -52 78 -53 81 -41 115 7
19 17 44 23 55 6 11 21 49 33 85 12 36 25 72 28 80 3 8 7 17 8 20 1 3 11 39
24 80 12 41 29 95 36 120 13 40 133 450 139 475 2 6 6 17 9 25 3 8 28 89 57
180 28 91 69 217 91 280 22 63 42 120 43 125 4 12 0 1 76 210 35 94 88 229
118 300 93 224 250 525 272 525 5 0 19 -33 31 -72z m1064 -608 c22 -128 194
-642 323 -963 l39 -99 -14 -56 c-8 -32 -16 -66 -18 -77 -4 -24 -28 -110 -50
-184 l-17 -54 -32 54 c-55 92 -140 267 -206 424 -81 193 -83 197 -113 280 -99
273 -94 249 -71 310 8 22 17 47 19 55 15 58 126 352 131 347 2 -1 6 -18 9 -37z
m-374 -335 c6 -16 12 -41 15 -55 3 -13 7 -26 9 -28 2 -2 -5 -27 -15 -56 -20
-56 -114 -347 -114 -358 -4 -40 -49 65 -131 301 l-36 105 25 70 c13 39 38 109
55 156 41 111 41 110 39 113 -1 1 5 13 12 27 8 14 15 27 15 30 16 66 17 63 67
-106 27 -93 54 -182 59 -199z m-564 329 c1 -27 17 -86 56 -204 12 -36 20 -69
19 -74 -2 -4 1 -13 6 -20 9 -11 22 -56 20 -66 -1 -3 4 -15 11 -28 10 -19 9
-34 -10 -90 -13 -37 -24 -71 -25 -77 -1 -5 -16 -50 -32 -100 -29 -87 -75 -235
-77 -245 -1 -3 -9 -32 -20 -65 -10 -33 -19 -64 -21 -70 -1 -5 -9 -35 -18 -65
-9 -30 -17 -59 -17 -65 -1 -5 -10 -35 -21 -65 -10 -30 -20 -63 -22 -75 -15
-74 -108 -355 -166 -500 -38 -96 -122 -263 -161 -323 -16 -24 -29 -47 -29 -53
0 -5 -4 -9 -9 -9 -5 0 -12 -8 -16 -19 -7 -24 -150 -171 -166 -171 -11 0 -101
70 -131 103 -15 17 -14 22 20 78 62 102 111 199 159 314 25 61 49 119 54 130
11 27 69 196 74 215 2 8 16 56 30 105 15 50 28 97 30 105 2 8 18 62 35 120 17
58 33 112 35 120 1 8 18 62 36 120 18 58 34 107 34 110 2 9 22 71 60 190 20
63 38 120 39 125 1 6 4 15 7 20 4 6 12 28 19 50 15 48 148 419 163 455 9 23
12 31 16 45 4 16 16 1 18 -21z m1565 -508 c21 -65 105 -300 123 -341 7 -16 29
-70 49 -118 l35 -88 -39 -152 c-21 -84 -43 -165 -50 -182 l-11 -30 -20 25
c-10 14 -57 102 -104 195 -81 164 -84 172 -75 215 11 63 26 173 45 340 2 19 7
60 11 90 4 30 7 65 7 78 1 37 12 25 29 -32z m488 -81 c4 -11 13 -36 20 -55 14
-41 22 -61 45 -115 23 -53 45 -106 55 -130 5 -11 22 -50 39 -88 34 -73 34 -72
1 -202 -11 -44 -23 -91 -26 -104 -3 -14 -7 -28 -10 -33 -3 -4 -7 -16 -9 -25
-2 -10 -8 -31 -15 -48 l-11 -30 -17 23 c-9 12 -30 48 -47 80 -16 31 -34 60
-38 63 -5 3 -9 10 -9 15 0 5 -21 52 -45 104 -47 98 -48 107 -29 220 7 40 17
102 22 140 2 19 6 46 9 60 9 47 20 136 24 200 1 13 19 -19 41 -75z m-1364
-103 c0 -4 4 -16 9 -27 4 -11 26 -67 48 -125 79 -208 209 -485 282 -605 13
-22 32 -53 41 -69 9 -16 24 -38 35 -49 18 -19 18 -21 -2 -48 -25 -36 -72 -69
-96 -69 -61 1 -163 90 -242 210 -20 30 -38 57 -41 60 -19 19 -170 314 -170
333 0 11 49 183 75 265 3 7 5 14 5 17 0 3 8 24 16 47 13 37 20 57 23 77 1 6
16 -9 17 -17z m-461 -29 c3 -15 17 -52 31 -81 13 -29 24 -57 24 -62 0 -11 33
-89 56 -132 9 -16 13 -28 9 -28 -3 0 3 -16 13 -36 l18 -36 -66 -227 c-131
-442 -227 -676 -355 -871 -43 -65 -44 -66 -115 -139 -71 -72 -112 -104 -150
-116 -14 -4 -30 -12 -37 -17 -13 -11 -126 -17 -167 -9 l-30 6 43 45 c49 52
134 164 162 212 139 243 228 471 359 928 54 188 117 396 167 553 16 51 27 54
38 10z m2171 -627 c4 -11 10 -24 15 -30 5 -6 36 -53 69 -104 l61 -94 -26 -34
c-48 -63 -104 -85 -153 -60 -53 28 -114 88 -106 105 16 40 76 208 79 224 3 10
7 28 11 39 6 21 7 21 25 -3 10 -13 22 -33 25 -43z m-956 2 c0 -11 100 -180
127 -216 l25 -33 -47 -45 c-40 -40 -51 -45 -80 -41 -40 5 -89 34 -128 74 -25
27 -26 32 -15 63 6 19 17 46 25 60 7 14 13 32 13 41 0 9 3 19 7 23 4 3 8 12
10 19 1 7 8 34 15 60 l12 49 18 -24 c9 -13 18 -26 18 -30z m470 -2 c0 -10 95
-170 127 -213 l24 -32 -36 -40 c-61 -67 -119 -63 -203 16 l-44 41 21 46 c11
25 17 46 14 46 -3 0 -1 6 4 13 6 6 16 30 24 52 15 46 13 39 24 89 l8 39 18
-24 c10 -13 19 -28 19 -33z m-3384 -299 c6 -12 37 -67 69 -122 32 -55 65 -112
74 -127 15 -25 14 -30 -14 -87 -16 -34 -33 -61 -37 -61 -5 0 -7 -4 -3 -9 3 -5
-1 -15 -8 -23 -8 -7 -20 -24 -27 -37 l-12 -24 -29 32 c-15 18 -37 45 -48 59
-12 15 -37 47 -56 72 -19 25 -35 52 -35 61 0 8 17 56 38 105 21 49 44 110 51
137 15 53 21 57 37 24z m324 -513 c30 -42 63 -84 73 -95 17 -18 16 -20 -14
-46 -17 -16 -42 -38 -56 -51 l-25 -23 -37 28 c-46 34 -111 91 -111 97 0 3 6
11 13 18 7 7 30 43 52 81 21 37 42 67 45 67 3 0 30 -35 60 -76z m-456 -21 l68
-86 -39 -37 c-61 -59 -72 -59 -148 0 -36 29 -65 54 -65 56 0 2 15 26 33 52 18
26 38 59 45 75 6 15 18 27 25 27 7 0 44 -39 81 -87z m-256 -218 c28 -26 25
-29 -33 -25 -44 3 -49 9 -24 31 27 24 25 24 57 -6z m475 -10 c15 -13 27 -26
27 -28 0 -3 -95 -2 -109 2 -6 1 41 51 48 51 3 0 18 -12 34 -25z m478 -21 l34
-36 -59 6 c-33 3 -61 8 -64 11 -5 5 39 55 49 55 3 0 21 -16 40 -36z"/>
</g>
</svg>
