<?xml version="1.0" standalone="no"?>
<!DOCTYPE svg PUBLIC "-//W3C//DTD SVG 20010904//EN"
 "http://www.w3.org/TR/2001/REC-SVG-20010904/DTD/svg10.dtd">
<svg version="1.0" xmlns="http://www.w3.org/2000/svg"
 width="700.000000pt" height="700.000000pt" viewBox="0 0 700.000000 700.000000"
 preserveAspectRatio="xMidYMid meet">
<metadata>
Created by potrace 1.14, written by Peter Selinger 2001-2017
</metadata>
<g transform="translate(0.000000,700.000000) scale(0.100000,-0.100000)"
fill="#000000" stroke="none">
<path d="M541 6989 c-217 -42 -399 -186 -486 -382 -59 -135 -56 63 -53 -3142
l3 -2930 28 -82 c67 -197 223 -353 421 -421 l81 -27 2965 0 2965 0 82 28 c197
67 353 223 421 421 l27 81 0 2965 0 2965 -27 81 c-77 227 -261 391 -491 438
-68 14 -382 16 -2984 15 -1601 -1 -2928 -5 -2952 -10z m4819 -2005 c189 -25
540 -125 540 -154 0 -5 -28 -73 -62 -150 -49 -114 -64 -140 -77 -134 -9 4 -79
29 -157 55 -433 148 -835 142 -1149 -16 -319 -160 -511 -453 -566 -862 -17
-130 -6 -462 20 -581 54 -251 138 -420 280 -563 168 -169 379 -255 688 -281
215 -18 487 6 696 63 l37 10 -2 447 -3 447 -342 3 -343 2 0 150 0 150 515 0
515 0 0 -710 0 -709 -84 -26 c-408 -124 -967 -162 -1321 -90 -247 51 -454 161
-626 334 -238 237 -358 539 -391 979 -24 322 29 648 147 897 119 249 339 472
591 598 290 145 682 195 1094 141z m-2130 -169 l0 -155 -460 0 -460 0 0 -1310
0 -1310 -170 0 -170 0 0 1310 0 1310 -460 0 -460 0 0 155 0 155 1090 0 1090 0
0 -155z"/>
</g>
</svg>
